<?xml version="1.0" encoding="UTF-8" standalone="no"?>
<svg xmlns:rdf="http://www.w3.org/1999/02/22-rdf-syntax-ns#" xmlns="http://www.w3.org/2000/svg" height="100" width="100" version="1.1" xmlns:cc="http://creativecommons.org/ns#" xmlns:dc="http://purl.org/dc/elements/1.1/" viewBox="0 0 99.999997 99.999997">
 <g fill-rule="evenodd" transform="translate(0 -952.36)" fill="#e1234c">
  <path d="m23.769 991.54s-10.887 21.243-12.427 28.802c-1.5399 7.5594-1.3531 10.616 0 14.401 1.3531 3.7856 2.9469 5.6328 6.2135 7.2007 3.2666 1.5681 9.1605 1.5681 12.427 0 3.2666-1.5679 4.8605-3.4151 6.2135-7.2007 1.3531-3.7854 1.5399-6.8417 0-14.401-1.5399-7.5595-12.427-28.802-12.427-28.802z"/>
  <path d="m48.176 958.25s-11.215 23.689-12.801 32.119c-1.5863 8.4297-1.3938 11.838 0 16.059 1.3938 4.2215 3.0357 6.2813 6.4006 8.0298s9.4362 1.7485 12.801 0c3.3649-1.7485 5.0068-3.8083 6.4006-8.0298 1.3938-4.2212 1.5863-7.6293 0-16.059-1.5863-8.4299-12.801-32.119-12.801-32.119z"/>
  <path d="m77.231 973.66s-11.52 24.833-13.15 33.67c-1.6294 8.8368-1.4317 12.41 0 16.835 1.4317 4.4253 3.1183 6.5847 6.5748 8.4176s9.693 1.8329 13.15 0c3.4565-1.8329 5.143-3.9923 6.5748-8.4176 1.4317-4.425 1.6294-7.9978 0-16.835-1.6294-8.837-13.15-33.67-13.15-33.67z"/>
 </g>
</svg>
