<?xml version="1.0" encoding="UTF-8" standalone="no"?>
<svg xmlns:rdf="http://www.w3.org/1999/02/22-rdf-syntax-ns#" xmlns="http://www.w3.org/2000/svg" height="100" width="100" version="1.1" xmlns:cc="http://creativecommons.org/ns#" xmlns:dc="http://purl.org/dc/elements/1.1/" viewBox="0 0 99.999997 99.999997">
 <g fill-rule="evenodd" transform="translate(0 -952.36)" fill="#e1234c">
  <path d="m32.775 984.47s-12.006 22.699-13.704 30.777c-1.6982 8.0775-1.4921 11.343 0 15.388 1.4921 4.0451 3.2499 6.019 6.8522 7.6944 3.6023 1.6756 10.102 1.6756 13.704 0 3.6023-1.6754 5.3601-3.6493 6.8522-7.6944 1.4921-4.0448 1.6982-7.3106 0-15.388-1.6982-8.0777-13.704-30.777-13.704-30.777z"/>
  <path d="m67.77 964.96s-11.215 23.689-12.801 32.119c-1.5863 8.4296-1.3938 11.838 0 16.059 1.3938 4.2215 3.0357 6.2813 6.4006 8.0298s9.4362 1.7485 12.801 0c3.3649-1.7485 5.0068-3.8083 6.4006-8.0298 1.3938-4.2212 1.5863-7.6293 0-16.059-1.5863-8.4299-12.801-32.119-12.801-32.119z"/>
 </g>
</svg>
