<?xml version="1.0" encoding="UTF-8" standalone="no"?>
<svg xmlns:rdf="http://www.w3.org/1999/02/22-rdf-syntax-ns#" xmlns="http://www.w3.org/2000/svg" height="100mm" width="100mm" version="1.1" xmlns:cc="http://creativecommons.org/ns#" xmlns:dc="http://purl.org/dc/elements/1.1/" viewBox="0 0 354.33071 354.33071">
 <g transform="translate(0 -698.03)">
  <g opacity=".5" transform="translate(217.38 113.32)" stroke="#e1234c" stroke-linecap="round">
   <rect stroke-linejoin="round" height="95.291" width="95.291" y="716.53" x="18.463" stroke-width="4.7087" fill="#fff"/>
   <path d="m42.714 762.32c7.6703 6.9392 15.169 19.501 19.733 30.857 9.494-23.617 17.466-49.429 33.022-62.988" stroke-width="5" fill="none"/>
  </g>
  <g opacity=".75" transform="translate(103.02 191.55)" stroke="#e1234c" stroke-linecap="round">
   <rect stroke-linejoin="round" height="95.291" width="95.291" y="716.53" x="18.463" stroke-width="4.7087" fill="#fff"/>
   <path d="m42.714 762.32c7.6703 6.9392 15.169 19.501 19.733 30.857 9.494-23.617 17.466-49.429 33.022-62.988" stroke-width="5" fill="none"/>
  </g>
  <g stroke="#e1234c" stroke-linecap="round" transform="translate(19.117 163.48)">
   <rect stroke-linejoin="round" height="95.291" width="95.291" y="716.53" x="18.463" stroke-width="4.7087" fill="#fff"/>
   <path d="m42.714 762.32c7.6703 6.9392 15.169 19.501 19.733 30.857 9.494-23.617 17.466-49.429 33.022-62.988" stroke-width="5" fill="none"/>
  </g>
  <g stroke="#e1234c" stroke-width="5.1474" transform="matrix(.75365 0 0 .71882 153.61 69.473)">
   <path d="m52.524 917.62c-23.828 30.163 43.385 77.628 43.385 77.628s67.214-47.484 43.385-77.648c-22.975-29.084-43.385 0.0104-43.385 0.0104s-20.412-29.073-43.385 0.009z" fill-rule="evenodd" fill="#e1234c"/>
   <path d="m95.061 935.98c-23.828 30.163 43.385 77.628 43.385 77.628s67.214-47.484 43.385-77.648c-22.975-29.084-43.385 0.0104-43.385 0.0104s-20.412-29.073-43.385 0.009z" fill="none"/>
  </g>
  <g transform="translate(-.71429 -3.5714)">
   <rect stroke-linejoin="round" height="137.14" width="136.43" stroke="#e1234c" stroke-linecap="round" y="720.22" x="20.714" stroke-width="4" fill="#fff"/>
   <text style="word-spacing:0px;letter-spacing:0px" transform="scale(.95418 1.048)" line-height="125%" xml:space="preserve" font-size="78.947px" y="762.11609" x="41.751907" font-family="sans-serif" fill="#e1234c"><tspan y="762.11609" x="41.751907">29</tspan></text>
   <text style="word-spacing:0px;letter-spacing:0px" line-height="125%" font-size="40px" y="844.27081" x="54.548241" font-family="sans-serif" xml:space="preserve" fill="#e1234c"><tspan y="844.27081" x="54.548241">Feb</tspan></text>
  </g>
  <g fill-rule="evenodd" fill="#e1234c" transform="matrix(.76271 0 0 .64652 245.11 348.97)">
   <path d="m23.769 991.54s-10.887 21.243-12.427 28.802c-1.5399 7.5594-1.3531 10.616 0 14.401 1.3531 3.7856 2.9469 5.6328 6.2135 7.2007 3.2666 1.5681 9.1605 1.5681 12.427 0 3.2666-1.5679 4.8605-3.4151 6.2135-7.2007 1.3531-3.7854 1.5399-6.8417 0-14.401-1.5399-7.5595-12.427-28.802-12.427-28.802z"/>
   <path d="m48.176 958.25s-11.215 23.689-12.801 32.119c-1.5863 8.4297-1.3938 11.838 0 16.059 1.3938 4.2215 3.0357 6.2813 6.4006 8.0298s9.4362 1.7485 12.801 0c3.3649-1.7485 5.0068-3.8083 6.4006-8.0298 1.3938-4.2212 1.5863-7.6293 0-16.059-1.5863-8.4299-12.801-32.119-12.801-32.119z"/>
   <path d="m77.231 973.66s-11.52 24.833-13.15 33.67c-1.6294 8.8368-1.4317 12.41 0 16.835 1.4317 4.4253 3.1183 6.5847 6.5748 8.4176s9.693 1.8329 13.15 0c3.4565-1.8329 5.143-3.9923 6.5748-8.4176 1.4317-4.425 1.6294-7.9978 0-16.835-1.6294-8.837-13.15-33.67-13.15-33.67z"/>
  </g>
 </g>
</svg>
