<?xml version="1.0" encoding="UTF-8" standalone="no"?>
<svg xmlns:rdf="http://www.w3.org/1999/02/22-rdf-syntax-ns#" xmlns="http://www.w3.org/2000/svg" height="100mm" width="100mm" version="1.1" xmlns:cc="http://creativecommons.org/ns#" xmlns:dc="http://purl.org/dc/elements/1.1/" viewBox="0 0 354.33071 354.33071">
 <g transform="translate(0 -698.03)">
  <g stroke="#e1234c" stroke-width="4">
   <rect stroke-linejoin="round" height="96.975" width="155.56" stroke-linecap="round" stroke-miterlimit="10" y="722.04" x="25.254" fill="#fff"/>
   <path d="m26.25 723.97l72.143 48.75 81.967-50.89" fill="none"/>
   <g stroke-miterlimit="7">
    <rect stroke-linejoin="round" height="74.853" width="113.08" stroke-linecap="round" y="734.29" x="217.42" fill="#fff"/>
    <path d="m218.14 735.78l52.441 37.629 59.58-39.283" fill="none"/>
    <rect stroke-linejoin="round" height="50.306" width="82.465" stroke-linecap="round" y="847.67" x="231.09" fill="#fff"/>
    <path d="m231.62 848.67l38.243 25.289 43.45-26.401" fill="none"/>
    <rect stroke-linejoin="round" height="40.487" width="66.081" stroke-linecap="round" y="929.9" x="211.64" fill="#fff"/>
   </g>
  </g>
  <g stroke="#e1234c" fill="none">
   <path d="m212.06 930.71l30.645 20.353 34.817-21.248" stroke-miterlimit="7" stroke-width="4"/>
   <ellipse stroke-linejoin="round" stroke-linecap="round" rx="65.947" ry="64.74" cy="944.49" cx="117.28" stroke-miterlimit="7" stroke-width="4.3502"/>
   <path d="m82.58 998.57c-16.162 9.63-16.162 29.83-16.162 29.83" stroke-width="6"/>
   <path d="m152.26 999.82c16.162 9.5964 16.162 29.799 16.162 29.799" stroke-width="6"/>
   <g stroke-linejoin="round" stroke-linecap="round" stroke-width="3">
    <ellipse rx="17.411" ry="8.75" transform="rotate(-36.503)" cy="749.99" cx="-456.11"/>
    <ellipse rx="17.411" ry="8.75" transform="matrix(-.80383 -.59486 -.59486 .80383 0 0)" cy="610.52" cx="-642.11"/>
    <rect height="29.107" width="16.071" y="850.22" x="108.21"/>
   </g>
   <path stroke-linejoin="round" d="m119.29 947.9c35-23.571 35.357-23.571 35.357-23.571" stroke-linecap="round" stroke-width="6"/>
   <path stroke-linejoin="round" d="m117.88 947.57c0.008-56.642 0.11281-57.04 0.11281-57.04" stroke-linecap="round" stroke-width="4.2023"/>
  </g>
  <ellipse rx="6.9302" ry="6.8301" cy="946.8" cx="118.19" stroke-width="0" fill="#e1234c"/>
 </g>
</svg>
