<?xml version="1.0" encoding="UTF-8" standalone="no"?>
<svg xmlns:rdf="http://www.w3.org/1999/02/22-rdf-syntax-ns#" xmlns="http://www.w3.org/2000/svg" height="100" width="100" version="1.1" xmlns:cc="http://creativecommons.org/ns#" xmlns:dc="http://purl.org/dc/elements/1.1/" viewBox="0 0 99.999997 99.999997">
 <g fill="#333" transform="matrix(1.2752 0 0 1.1424 -12.132 -6.6462)">
  <path fill="#333" d="m66.303 35.813-1.1094-7.3447q-0.11476-0.61206-0.45904-0.95634-0.30603-0.38254-0.84158-0.38254h-11.208v43.341q0 0.5738 0.38254 1.1094 0.42079 0.53555 1.2624 0.61206l5.0112 0.30603v3.3663h-21.231v-3.3663l5.0112-0.30603q0.84158-0.07651 1.2241-0.61206 0.42079-0.53555 0.42079-1.1094v-43.341h-11.285q-0.53555 0-0.91808 0.38254-0.34428 0.34428-0.42079 0.95634l-1.0711 7.3447h-4.5522v-12.509h44.412v12.509h-4.6287z"/>
 </g>
</svg>
